<?xml version="1.0" standalone="no"?>
<!DOCTYPE svg PUBLIC "-//W3C//DTD SVG 20010904//EN"
 "http://www.w3.org/TR/2001/REC-SVG-20010904/DTD/svg10.dtd">
<svg version="1.0" xmlns="http://www.w3.org/2000/svg"
 width="454.000000pt" height="467.000000pt" viewBox="0 0 454.000000 467.000000"
 preserveAspectRatio="xMidYMid meet">

<g transform="translate(0.000000,467.000000) scale(0.100000,-0.100000)"
fill="#000000" stroke="none">
<path d="M875 3823 c-16 -3 -38 -12 -47 -20 -17 -15 -18 -93 -18 -1360 0 -858
4 -1351 10 -1363 5 -10 24 -23 41 -29 42 -15 495 -15 537 0 17 6 35 22 41 37
8 19 11 401 9 1359 l-3 1332 -23 23 c-22 23 -26 23 -270 24 -136 0 -260 -1
-277 -3z"/>
<path d="M2002 3820 c-19 -4 -39 -13 -45 -19 -9 -9 -13 -156 -15 -535 -3 -505
-2 -524 17 -547 l19 -24 281 -3 281 -3 25 25 26 26 -3 524 c-3 489 -4 527 -21
543 -16 16 -43 18 -275 20 -141 1 -272 -2 -290 -7z"/>
<path d="M3145 3820 c-11 -4 -29 -18 -40 -30 -20 -22 -20 -38 -23 -1344 -2
-983 1 -1328 9 -1349 22 -53 44 -57 324 -57 l257 0 29 29 29 29 0 1332 c0
1492 6 1383 -72 1393 -64 9 -490 7 -513 -3z"/>
<path d="M1994 2151 c-55 -33 -55 -34 -52 -570 l3 -493 29 -24 28 -25 275 3
275 3 19 24 c19 23 19 42 17 547 -3 510 -4 524 -23 538 -17 13 -64 15 -280 16
-237 0 -263 -2 -291 -19z"/>
</g>
</svg>
